Coordinates
version=1
nRows=9
nColumns=36
inDegrees=yes

Units are S.I. units (second, meters, Newtons, ...)
If the header above contains a line with 'inDegrees', this indicates whether rotational values are in degrees (yes) or radians (no).

endheader
time	pelvis_tilt	pelvis_list	pelvis_rotation	pelvis_tx	pelvis_ty	pelvis_tz	hip_flexion_r	hip_adduction_r	hip_rotation_r	knee_angle_r	knee_angle_r_beta	ankle_angle_r	subtalar_angle_r	mtp_angle_r	hip_flexion_l	hip_adduction_l	hip_rotation_l	knee_angle_l	knee_angle_l_beta	ankle_angle_l	subtalar_angle_l	mtp_angle_l	lumbar_extension	lumbar_bending	lumbar_rotation	arm_flex_r	arm_add_r	arm_rot_r	elbow_flex_r	pro_sup_r	arm_flex_l	arm_add_l	arm_rot_l	elbow_flex_l	pro_sup_l
      1.26666670	      0.67273700	      1.21050168	      3.24954676	     -0.11929367	      1.39217376	     -0.10984789	      0.65501905	     -3.86910682	     -3.29572842	     10.55016841	      0.18413518	     16.95621796	     -2.26488972	     -7.49978788	     -2.84516224	      1.06395974	     -1.49748180	      5.88240317	      0.10266730	     15.96573774	      6.12732155	     -7.49978788	    -10.32895284	      0.22179063	     -6.83584181	     18.46350649	    -12.49517918	     38.73920408	     19.20682678	     74.93152883	      3.28644403	    -20.74781497	     35.42877770	     31.09142573	     69.14615833
      1.28333330	      0.62325924	      1.11831592	      3.13458103	     -0.11035453	      1.39210646	     -0.11285168	      0.92452234	     -3.79448775	     -3.25521250	     10.84827032	      0.18933804	     17.03263867	     -2.28406209	     -7.49978956	     -2.60879178	      0.98441730	     -1.30307189	      6.22919267	      0.10871992	     16.18033660	      5.95941361	     -7.49978956	    -10.66042506	      0.32576223	     -6.71523732	     18.37262881	    -12.52891757	     38.76500808	     18.94603417	     75.08537191	      3.34748007	    -20.85727096	     35.50856892	     31.29940106	     69.25090773
      1.30000000	      0.62366945	      1.12645334	      3.10829185	     -0.10865545	      1.39267434	     -0.11298171	      1.05917055	     -3.79098960	     -3.35106766	     10.99529020	      0.19190402	     16.99794911	     -2.29835200	     -7.49981212	     -2.37629745	      1.03940103	     -0.98584136	      6.54034968	      0.11415064	     16.03940175	      5.50884064	     -7.49981212	    -11.10032936	      0.32449165	     -6.64299009	     18.20153811	    -12.76497500	     38.71014452	     19.52321695	     73.99371750	      3.18663429	    -21.25651420	     35.58018269	     32.28154956	     68.55498091
      1.31666670	      0.41640383	      1.13002252	      3.17010424	     -0.12072519	      1.38865274	     -0.10960556	      1.46235842	     -3.81304062	     -3.43973265	     11.25288222	      0.19639985	     17.01326879	     -2.43022242	     -7.49981232	     -1.69697330	      1.04634699	     -1.09563779	      7.11700702	      0.12421521	     16.21509529	      5.48157612	     -7.49981232	    -11.32804607	      0.37059016	     -6.80076080	     18.53265445	    -12.60335191	     38.73537511	     18.82541378	     74.29441083	      3.51975031	    -21.49275147	     35.86083614	     32.14847590	     68.82198344
      1.33333330	      0.22947989	      1.08973956	      3.23447044	     -0.11874123	      1.38609278	     -0.10996260	      1.81624907	     -3.78341082	     -3.54112610	     11.45590879	      0.19994333	     17.02234002	     -2.57795540	     -7.49981480	     -1.04108383	      1.01226197	     -1.04818232	      7.58705434	      0.13241908	     16.30862949	      5.22534821	     -7.49981480	    -11.76131562	      0.43526931	     -6.79344095	     18.74203609	    -12.64855094	     38.75092183	     18.83344709	     74.41233593	      3.69686815	    -21.70508049	     35.92666288	     32.37997313	     68.90023156
      1.35000000	     -0.06781556	      0.98583234	      3.43720831	     -0.11983017	      1.38961064	     -0.10992379	      2.19148922	     -3.70210606	     -3.58139077	     11.58560337	      0.20220692	     16.85518931	     -2.80515090	     -7.49984791	     -0.52003467	      0.84830619	     -1.11502989	      7.75377038	      0.13532882	     15.81695314	      4.68964326	     -7.49984791	    -12.07489327	      0.61541100	     -7.14900257	     19.10269144	    -12.50393222	     38.98729730	     18.43324081	     74.07023486	      3.53961976	    -22.03170143	     36.44804749	     32.60624460	     68.75721761
      1.36666670	     -0.23540642	      0.95760929	      3.32267523	     -0.11776062	      1.39020622	     -0.11018344	      2.53827994	     -3.71110129	     -3.62159664	     11.78317952	      0.20565528	     16.90575751	     -2.80569642	     -7.49986955	     -0.00697476	      0.80087532	     -1.10149545	      8.23242564	      0.14368293	     15.93752344	      4.46774155	     -7.49986955	    -12.52203863	      0.60015272	     -7.17151459	     19.31378080	    -12.54076683	     39.16348238	     18.48272443	     73.62692865	      3.51377437	    -22.15691019	     36.45162674	     32.56555827	     68.49472189
      1.38333330	     -0.45421257	      0.92464947	      3.44417455	     -0.11950926	      1.38661009	     -0.11001752	      2.77188527	     -3.69378878	     -3.69933641	     11.81284503	      0.20617304	     16.77594873	     -2.91160604	     -7.49987761	      0.36233001	      0.72035116	     -1.21658525	      8.37957444	      0.14625116	     15.57899464	      4.08155340	     -7.49987761	    -12.93060624	      0.66306847	     -7.42969474	     19.43317963	    -12.48317239	     38.37624845	     18.29739977	     74.77607283	      3.24131105	    -22.30177334	     36.34913530	     32.48731599	     69.57550741
      1.40000000	     -0.71911675	      0.85958243	      3.53523622	     -0.11724711	      1.38724655	     -0.11037820	      3.10640662	     -3.68524239	     -3.82640612	     11.97069702	      0.20892808	     16.83418633	     -2.91510334	     -7.49989005	      0.85622009	      0.57450725	     -1.50227686	      8.66507280	      0.15123405	     15.21500711	      3.57848159	     -7.49989005	    -13.26269127	      0.71231462	     -7.55193635	     19.18300217	    -12.56304027	     38.25890769	     18.36020001	     74.62324254	      3.13721227	    -22.34790574	     36.28182178	     32.15595853	     69.58664438
